<mxfile host="app.diagrams.net" modified="2022-05-14T05:40:22.061Z" agent="5.0 (Windows NT 10.0; Win64; x64) AppleWebKit/537.36 (KHTML, like Gecko) Chrome/101.0.4951.54 Safari/537.36" etag="eww3l9B_HCIEEG72j1tZ" version="17.4.0" type="github">
  <diagram id="cYpJm5EH4wtePq-gU6Rc" name="Page-1">
    <mxGraphModel dx="1736" dy="834" grid="1" gridSize="10" guides="1" tooltips="1" connect="1" arrows="1" fold="1" page="1" pageScale="1" pageWidth="850" pageHeight="1100" math="0" shadow="0">
      <root>
        <mxCell id="0" />
        <mxCell id="1" parent="0" />
        <mxCell id="ibdgOtkt6esbedMHl6Rk-4" value="" style="shape=image;verticalLabelPosition=bottom;labelBackgroundColor=default;verticalAlign=top;aspect=fixed;imageAspect=0;image=data:image/png,iVBORw0KGgoAAAANSUhEUgAAA/MAAAI4CAIAAACpxi43AAAgAElEQVR4nOzdZ3wU1eP+/TObToAQEhMIEGooooCidFATEIj0DqFHIAqKqEixgF8VqQI/UBIgRHoL1QhBqlQBKdJ7lV4CoYSEZOd+cG7mP+5uNptGkuXzfpBXdvbMzNkys9ecOXNGUVVVAAAAAMjjDDldAQAAAABZgGQPAAAA2AOSPQAAAGAPSPYAAACAPSDZAwAAAPaAZA8AAADYA5I9AAAAYA9I9gAAAIA9INkDAAAA9oBkDwAAANgDkj0AAABgD0j2AAAAgD0g2QMAAAD2gGQPAAAA2AOSPQAAAGAPSPYAAACAPSDZAwAAAPaAZA8AAADYA5I9AAAAYA9I9gAAAIA9INkDAAAA9oBkDwAAANgDkj0AAABgD0j2AAAAgD0g2QMAAAD2gGQPAAAA2AOSPQAAAGAPSPYAAACAPSDZAwAAAPaAZA8AAADYA5I9AAAAYA9I9gAAAIA9INkDAAAA9oBkDwAAANgDkj0AAABgD0j2AAAAgD0g2QMAAAD2gGQPAAAA2AOSPQAAAGAPHHO6AgDSZ8yYMXv27FEUJacrgmynqmrRokWnTp2qn8JHDwBIjaKqak7XAYBNZKpr2bLl6tWrP/zww5yuDrLd4sWLXV1d//3335yuCAAgb6DNHsh7Bg4cOGnSpJyuBbJdtWrVxowZk9O1AADkGfSzB/IMumEAAAArSPZAHkCvuRcWh3MAANuR7IE8gHj3wuKgDgBgO5I9kAcQ7wAAQJpI9kAeQJv9i8nkiI4DPACAdSR7AMilTI7oOMADAFhHsgcAAADsAckeAAAAsAckewAAAMAekOwBAAAAe0CyBwAAAOwByR4AAACwByR7AAAAwB6Q7AEAAAB7QLIHAAAA7AHJHgAAALAHJHsAAADAHpDsAQAAAHtAsgcAAADsAckeAAAAsAckewAAAMAekOwBAAAAe0CyBwAAAOwByR4AAACwByR7AAAAwB6Q7AEAAAB7QLIHAAAA7AHJHgAAALAHJHsAAADAHpDsAQAAAHtAsgcAAADsAckeAAAAsAckewAAAMAekOwBAAAAe0CyBwAAAOwByR4AAACwByR7AAAAwB6Q7AEAAAB7QLIHAAAA7AHJHgAAALAHJHsAAADAHpDsAQAAAHtAsgcAAADsAckeAAAAsAckewAAAMAekOwBAAAAe0CyBwAAAOwByR4AAACwByR7AAAAwB6Q7AEAAAB7QLIHAAAA7AHJHgAAALAHJHsAAADAHpDsAQAAAHtAsgcAAADsAckeAAAAsAckewAAAMAekOwBAAAAe0CyBwAAAOwByR4AAACwByR7AAAAwB6Q7FOlqmpOVwEAAACwFck+VYqi5HQVkDYOwAAAACSSPfI2DsAAAAAkkj3shKqqtN8DAIAXmWNOVwDIIFVVZYO9DPQ03gMAgBccbfb/oTX60vqb+2lRXlEUYj0AAABt9v+hBcR79+6lpKTkbGVgi3z58rm5uZHsAQAASPaW1axZ8/Tp0zldC6Rt2rRpYWFhOV0LAACAnEeytywpKenDDz8kMuZyb7zxRk5XAQAAILcg2Vvm4uLy6quvvvrqqzldEVhTqlQp7X+uowUAAC84kj3sBJkeAAC84BgbxzLGxgEAAEDeQrK3zGDgnckbaKoHAACQyK+mZGs9bfZ5BZ8UAACARLI3RRswAAAA8iKSPfIkmuoBAABMkOxzBsE0kzi1AgAAYIJknzO0YGrfEV97daqq2vcrBQAA6aXPCTlbE7vBePY5TN/2rKqq9abo538zpjSrZJ02L03sQF53+PDhyMjInK4F0vbqq6+GhobmdC1ynblz5+7bt09RFBJkbqOqqsFg0D6XWrVqderUyaQAKcJ2JPsckOHvaA5+s2056mDDA+zYmTNnJk+e3Lx5c/0ROyEpN5C7X/l39erVLVq0INmbi42NXbBgQYsWLXK6IkiVqqq//fbbw4cPTZI96SJdSPY5ILXvaDZ9dzOQufW/E3KK9XML/LoDLwIPD4/Vq1drDzmez4UGDhx48eLFnK5FLhUaGjpz5ky+t7lZly5dcroKeR7JPifJ/cvFixf37Nlz48aNQoUKvfbaa5UrV9aXSUpKOn78uIuLS8WKFU3mFUKcOHEiKSmpUqVKzs7OQoh///33zp07+mKOjo5+fn6enp76Ge/fv2+y6zcYDJ6ensWLF5dVknu9Bw8enD9/3sPDo1SpUvrCiqIcOnRIVdUiRYr4+voKs2OS5OTko0ePCiEqVqzo4uLy/DsRAcg8kwBkvgmzUedC+l7LfEAW8bbkZnw6mUeyz0l37tzp1atXTEyMfmLVqlUXLlxYqVIl+fDixYvVqlUrVarU+fPnhW5nLf82adLk0qVLp06dCggIEEKMHDnSvCOswWAoV67cqFGj2rZtK2dcu3at/rBYO6VepEiR0NDQkSNHOjo6CiE2bdrUunXrli1brly5Uvz3d+KXX36JiIioUKHCoUOH5EGF/tlx48YNHz68YcOGf/zxB78ugH3g1FyeIPfnfFgW8bbgRUCyf35MMm5CQkJQUNChQ4fq1KkTEhJSpEiR27dv//7776tXr65bt+4///xTokQJ84WY9IqR/xgM/xnjqEePHgULFpRN70+fPj1+/Pi2bdvat2+/dOnStm3banO9/fbbVapU0ea6du3aH3/88cMPP9y8eXP69OnmNdf3zxk3blxsbOzJkyfHjx8/fPhwfcVOnTo1cuRIT0/PqKgowfE3kGeZbLzmffDYunMn7bwrNGT6XIs9SZYj2T8/Jt/dtWvXHjp0qGPHjgsXLtSe6tu372efffbTTz/9+OOPv/zyi/VvfGonx7/++uuyZcvqp8+ePbtnz54DBw5s2bKlbI9XFKVdu3b9+/fXyqiqeuvWrZo1a0ZGRoaFhb3++uvaMk0umFMUpUCBApGRkY0aNfr+++87d+5cqlQpWUZV1T59+iQlJc2ePbt48eIZep8A5EYm2YgfY+Qh+nPdyFX4ULIc49nnmJs3bwoh3nvvPZOv9fDhw52cnE6dOiXMhp5Is9VBFjAfHbZHjx7FihW7cuXKpUuXTEpqZRRF8fHxadSokdFo3L17d2or1WobFBTUr1+/hISEjz76SJs4ffr0rVu3durUyeTCdgAAAGQ3kn3OUFXVx8dHCCG7sOsVLlz44cOHGzZs0KZYGRXeYucci8+a9NjRClg8eDCZktoRxbhx40qVKrVmzZro6GghxJkzZwYPHlysWLGff/7ZYnkAAABkH5J9zlAUpXnz5jVr1ly+fHn58uW//PLLvXv3JiQkyKfkNalaSSt3aNO665hcWWti3759ly9fLlCggHkPGX2Hn4SEhLVr1wohypUrpxUwGAypHT/kz59fXrDbv3//W7du9e3b98GDB7/++mvhwoUtlgcAAED2oZ99jnFycoqNjf36669/+eWXUaNGjRo1ymAwVK5cuVGjRsOGDfP29pbF0hzCzGRMSVVV58+fr80uhLh27dqsWbOEEF999ZX+mGHr1q36w4b4+Pjly5dfuXKlYsWK77zzjsnyNSZ1CAwM7NevX3h4eFBQ0OHDhz/++OOGDRtaKQ8AAIBsQrLPMaqqFipUaMqUKYMGDYqNjf3777+3bdt2+PDhI0eOLF68+Pfff69ataq+sBaRjUajedcaff4eOXKkSR8bHx+f6dOn9+nTRz/LkiVLlixZop/i7OwcEhIyduxYJycnKycKTNYrx8k5fPhwpUqVxowZk463AAAAAFmHZP9cWbyra5kyZT788EP5/6FDh/73v/8tW7asTZs2R44ccXNzkyE+tR7zRqNRCOHg4KAvMHny5KJFi8q5nJyc/P39q1Sp4uDgYFKZ0NDQxo0by/8dHBx8fX2rVKlSoEABk+pZb3RXFCV//vwdOnQYN25cjx49XF1d0/N+AAAAIMuQ7J8rrU/8/fv3J0yY4Onp+emnn+oLVKlSJTo6un379tHR0Zs3bw4ODvby8hJCJCYmWlzgvXv3hBD6fu1CiODgYH1HeT39ocVrr73Wvn371KpK/3gAAIC8hStoc4CiKK6urhMnTvzqq6/i4uLkRH2SrlevnniW5gsVKuTt7X3r1q1Hjx6ZLOfy5csPHz4sUqRIwYIFra9RNu2L9Izpa35XGvN6mhTgYAAAACAHkexzhqur6yeffJKQkDBgwAAZu7Xm/Lt370ZERLi6utavX18WfuONN5KTk//3v/+ZLGTBggVCCP3VruZk2jbpl28+tGWabOmcw8WyAAAAOYjeOM+PyeA2w4YNmz179oIFC44cOdK3b9/atWs/evQoNjb2l19+uXfv3vfffy/72BiNxu+///7PP/8cO3bslStXQkJCihcv/u+//y5btuzXX3/18vL6/vvvbVyjCRuD+Pnz5+X49PqrckuXLh0cHGzjCwcAAMBzQLJ/fmQy1vK0u7v7pk2bBg0atGbNmgEDBmgFPDw8vvvuu+HDh8uSBoOhevXqa9as6dOnz/z58+fPn68trVatWr/++muZMmXM1yVXZGWUTH0x69U+fPiwrJ5es2bN9MmefjgAAAA5jmT/nFjM0AEBATExMVevXj169Oj9+/eFEC+99NKbb77p5uZmMuPbb799+vTpixcvnjp1Kj4+Pl++fC+//HLJkiVNFjhp0qQff/zRy8srtbwul9amTZubN28WKFDAeqwPDg6+efOm+G9rveTi4qJ/OGLEiMGDB+fPnz+NdwEAAADZhmT/nFi5dNXPz8/Pz8/6jJK/v795mtfLnz+/9Xgtl+bi4vLSSy+lVkamf1VVnZ2drRTTc3d3d3d3t6UkAAAAsglX0OYl2lW25k/Z3h/GSkn97WytNOebLIGuOAAAALkByT7vkQ3qJnnavMOMldlFKnHcxmtqTYoxJA4AAEBuQLLPLtnakm3x6tiMJew065nmSPbIWnfu3ImIiHjy5ElOVwS5kX4zjI+Pj4yMZMPMMN46ZDlbbu2SmS9ehuflp/zFQbLPFlbGnMnARpWBnjZpzmLL+PTWS7J3sF263isvL6+9e/e6ubmNGjVKXleNF5b5GTY55e7du1999ZWHh8e1a9eeT02yY3s3GafLShnra7elbracpczAjT4yUD4zcyH3y8CNIG1ny3B2+sImK9V3uIUdI9lni6y6nZN+O9TuI5taMZGevC5s+1m1Mm9qQ2o+z1+s5OTk55Zs0mTlhad3TyrvSvbll18WLVp0yJAh169fz2zlkDeZ/xLfvHlz6NChJUqU+OGHH4QQ/fv3157N7vOE2bRMW9KG+bPmRzvm0y0uwcp+T7vEKF0HEhl7Z0hX9iTDnWNTW4KVJds+V1ad2Le+LuRCJPvcwmIm1m+H2n1krReznX6u9B5vpFY+tUH0s8nTp09Pnz6t1eq5rdeiLHzhfn5+o0aNcnBwSEhImDRpUvHixfv163f27Fl9mRx/vXjOrly58sknnxQvXnzixImPHz92cnL67LPPPD09M7a0DLdzZznrF+tb2dVoZWyZbnF1Vi46skK/igy0j7Dl2h/rGdril8TijWXS++Oe2hGvjT9G6fr2ciyah5Dss4t2Yje1M7zmP0jmv0mpnUFO8/g+Y6eVbcQW/hx8/PHH3t7eQoinT5+mpKT8+uuvAQEB7du3/+eff0Q6z8kir7tw4UKfPn1Kliz5yy+/PH36NCkpSQhhNBo//fRTWcCWn3OTGJqtfQbSy5YUnlqx9IYbW/aKtr9w6+0jFvfDbLkvMovn1dN1sl2T5uZgsUBqO4E0V22yNCudCJDjGM8+e1nZYlPrzaKP+CZnq7U8l+bNZdMcudJkjZkpYKVYdgdQRVHWrFkzdOjQ7FtFamROSk5OTk5OTklJkfk7+b8sTtFKplZeFtD2m/JjlWEuOjo6Ojq6TJkypUqVev4vGTkiLi6uTJky8muQkpIiJzo6Onp4eHTu3NnBwcHJyckxLQ4ODtpJv4xRFOXkyZNZ8HpSWbjRaIyOjl6zZs3ff/8dFxdXtGjRmjVrduzYsUGDBtpuZMeOHVOnThWpt2789NNPfn5+Dx8+fP/99x0dHSdMmODr62uSdebNm/f777+PGTNGuzeIoigrV65cuXLlvn377t696+Pj8+abb7Zr1+7dd9/VzyiXc/PmzZkzZ27YsOHUqVMODg5lypRp0aJF3759TW7oMWLECPO3y8PD45VXXmnUqFHFihUFx+f2aM+ePZs3bz5+/LiqqpUqVWrdunWFChW0T/nEiRN//vlnxYoV33rrLTlF+w7MnDkzJSWlQoUKb731lv5bcevWreXLl/v4+LRq1UpRlG+//VZRlG+++UYIcerUqS1btmglLX6d3nnnnfLly+unXLt2bcWKFQcPHkxMTCxXrlyLFi2qVaumX8Ljx4/nzp3r6urao0cP/Yxy4RcuXFi3bl3p0qX1WwdyG5J9dtG2scWLF9+7d69Tp04eHh4WS8bExFy7dq13794ODg5alN+8efPmzZsvXrxoNBr9/f2bNGnSoEEDk+12y5Ytp06dCgkJyZcvn/544NGjR/PmzbNevQ4dOsjz+IqiHD9+fOvWrX5+fs2bN9eXMTnMOHv27Jo1a06cOBEXF+fg4FCyZMmQkJCKFSvqjyJ279598ODB1Fbq4ODw/vvvW69YuhgMhqJFix44cCALl5mutZuEJ0dHRzc3N+2heerSpshnzeOX/uGQIUP27dunhTkHBwcvL6/hw4dv2LCBa6FeHIUKFZo2bdrXX3995swZ7XjPaDQ6Ozu//fbb2vGhPGjUjhITExMfPXqkP27M/Bm8LVu26G+PnUn6IKKqakhIyKJFi4QQPj4+hQoVOnPmzL59+3755Zd+/fqFh4fLYhcuXFi8eLGVZY4cOdLPzy8pKWnJkiVCiAcPHqxevVpfQFGUffv2LV68eOjQoVqy/+CDD8LDwxVF8fHx8fDwOHfu3MGDB2fMmPHxxx9PnjxZm1EIMWfOnAEDBjx48MDZ2bl48eIpKSl//vnnli1bpkyZMnfu3Lp162ovZ8OGDTt37vT399e/Y3FxcdOnTxdCvP/++zNmzGDjtSfx8fG9evVasWKF+uxWj0KI4cOHN27c+JdffildurSqqg8fPgwLC6tXr962bdvkXPI7cPDgwT59+gghqlWrpv85U1U1NjY2LCysT58+rVu3VlV15MiRQgiZ7Ldu3RoWFmalSoqiREVFacn+woULAwcOjImJ0Te3jxgxon379hEREZ6enrIy9+7dCwsL8/Ly0id77UUdOHAgLCysVatWFo97kVuosKR8+fLTpk3LkkV9+OGHQojw8HCLz96/f9/d3f2dd97Rppw+ffr111+Xn06RIkVKlSrl4OAghAgMDDx79qwsYzQaVVXt3r27EOL8+fP6BRqNxsuXL8vZrWxsR48e1WZp06aNoiguLi537tyxWMlHjx717t1bpnwHB4eyZcsWKFBALr9nz57x8fFaySFDhlj5sjk6Omb0XbTM5GOSb4t9OHz4sPa+OTk5eXp6Tp48OSEhQVXVFi1aDBw4MKcriOdh+vTpZcuWVVU1JSVl0aJF2t5AWrdunWr2tdceZn5zMFnCF1984eHhkcllWiTzd1BQkLY3S0lJWbp0qWwNWb9+vZw4d+5cIUTbtm2vpUIewNy6dUvbAc6dO9dkXQMHDhRCHDhwQFu1oii1atU6d+6cturffvvN29vbYDDs379fexNmz54thPDy8oqKinr8+LGcGBcXFx4e7urq6urqunXrVm0tderUEUJs2bLFZO1//vmnl5eXEGLTpk1Z9e6Z+Pjjj1u2bJlNC8/TunTpEhoamk0Lr1+/vhCicuXKq1atunDhwsWLF9evX9+mTRshhJ+f3/3791VVTUlJ8fT0dHV1TUpK0s/7/fffCyHc3NwMBsPt27f1T/Xt21cIsWjRIvlQH9u2bdvWr1+/vn37yr/yPECFChX66uzatUsWPnbsmOzeWb169WXLlp09e/bixYurVq2qV6+eoiivv/76o0ePZMmrV68KIby9veVDk53AihUrhBCtWrXK4rdPJ1s/phcEyd6yLEz2+/fvF0LUqVNHP1HbWqZNmyaEmDdvnnx44cKFokWLCiE6dep08uRJOfHWrVuffvqpwWAoXLiw9oOkPkv2Fy5cMNn2kpOTL126dOnSpcuXL1+6dEmev/7xxx/lQ+np06ey8I0bN5ycnOReaeLEieb1T05ODgwMFEK8+eabCxcuvHfvnqqqSUlJMTEx8iyebEuQL+qLL74QQgwfPvySJZcvX878+6mXhR9TrmI0Gtu1ayczfcGCBceMGfPw4UOj0Sg/6ObNm5PsXxBaspeePn0aFRVVpEgRR0dHIUT58uWf59Fslid7rfIDBgwQQuzbt0/7ksu/s2bNEkIMGTJEFpPJPiQkRP1v4DB5E27duqUoiru7u6+vr6en57Vr1/TPmiT7wYMHCyE2btxosrSIiAghRP/+/eXE+Ph4mcmOHDli/kLWrFmjKEqJEiW0xKZP9ibVk/v8jh07ZtNnR7JPjRYZs/ydv3jxohCiUqVKWjuXtgoZuLUjTJn1//rrL1lGFqtdu3a+fPlkG/nSpUv1S65cubKiKDdv3pQPrTTIyo2lZ8+eJtPlWt544w0hRPv27WXzkCYxMVH+jn/++edyytWrVxVF8fb2tvguLV++nGSf+3EFbbZ77bXXqlWrtnPnTv3YJlpr+qxZszw8PGQ4FkL06dPn2rVro0ePXrhwoXYSzdvbe8KECbNnz757927btm3N72Fk0jbv4OBQokSJEiVKFC9evESJEoULFxZCeHp6yoeSTAZCiLlz5z59+vTrr78uVqyY/DET/70Sd9asWZs2bapVq9b27du1PkVOTk7vvffeli1bqlSpsmLFigsXLuirUbBgwRKWFC9ePKveVft26dKl6OhoIcSXX355+fLlL774wt3dPWNXWSFPM/msHR0de/bsefHixSlTpgghTp06tWHDhhyqWhbQ98aR8UXr/if/vvfee8OGDWvcuLH5XFYu/pO/ba6urtOmTYuLi+vXr1+a1bh586bJ0tq2bTtkyJD33ntPTlyxYkVcXFz//v0rV65ssi4hRNOmTZs2bXr58uWNGzem9jK1naq/v78QQh5+qFk9yIFqdewEVVV/++237777LmtXmudk+S709u3bQoiGDRvKs9n6VfTp00dRlM2bN8uHspls165d4tmwGXfu3Nm9e3e1atXkMYA8mSMLx8XFHT9+/NVXX33ppZcyXDdFUdatW/f3339XqFDh119/dXV11T/r7OwsdybTp09PSEiQE1Wzrp5Z/kVFtiLZPw+hoaHi2VG7fvqhQ4f27t3bpUsX2VH+xIkT69evf+uttyz2aenatWurVq3OnTsnT4dpMrbJaXPNmjXL2dm5Xr16nTp1ktf3iP/e0mLq1KmOjo5z5sxxdnY2WYiHh8enn37q7+9vMiBjmiuFdeHh4Z9//vnt27dHjBhRsGBBOVGlL+OLx+Im4+zsHBYWlpCQMG7cONnN7zlXIMsXHhwcrKpqaGhoRETElStXtAI+Pj6jRo1655130lUl7fCgdevWnTt3Xr16tWzsl4nfpHBgYKCqqoMGDZo/f35cXJw23cvLa/To0U2bNpUzbt++XQjRsWNH83XJf+RFSvorGi2WTElJkUFKdsrP8i1a7rpNXqaqqvICZYPB0KJFC5MjJWSebPBavny5+f1VOnTokJCQEBkZKR82bNhQCLFjxw6tQGxsrNFobNSokey5vnHjRu1bsWvXLqPRGBQUlMnqRUVFCSGGDRuWL18+baJ2EFivXr0///zz6tWr2jUhFgf84Oc7D+EK2uchJCRk8ODB8+bNk5e/aGbOnCme5X5VVf/44w8hRNeuXVNbTvfu3VeuXBkbG9u5c2dtoo2/DRaL/fXXX8eOHevSpYubm1vPnj0nTJgQEREhWw7klnzy5MlDhw69/fbb5cqVU/97xZv8v0uXLj169LBxmyeY2mj48OH58+c3mci7B0lufa6urp9//vnjx4+Tk5OdnJyez3qzdoHaVzo4ODgsLCw8PFxeEejr6xscHNymTZvGjRs7OjrqdztCiJ07d1rcSdauXbt///4mVZ0yZcqmTZsGDhwYFBTk5+cnzE4UNGnSZMiQIWPHju3WrZuqqmXKlGnUqFFwcHCjRo30QefcuXOKorzyyivm65XLkS3xso1DW/uaNWu0G24IIe7du7d06dI9e/b4+PjIDnXZsVEriqIfByk5OXnx4sXffPONPLNaqVKlGjVqZPlK84psiqdly5atV6/e9u3bX3nllW7dujVu3PjNN9+U/dpNts0KFSoUL15cttlLv//+uxCicePGxYoVe/XVVw8fPnzlypVixYqJZwcAmU/28lRSlSpV9F85RTfaXoMGDfTl5aGgduWJdqisquqNGzcyWRk8ByT758HT07NVq1aLFi3asWOHNn5CYmLi/Pnzq1atWr16dSGEoijyN0AbgspchQoVhBDHjx/PQB1M9mhyQ5WH8oMGDRJCvPLKK7Vr1162bNnt27flLklRFLlHqFGjhrZh63cHQggnJyfz36d9+/ZpTRT65v9mzZr5+PhkoPIvGu2ULiCZ/CRrU/SNcNnBSqeXLKG9rmnTpn3wwQdTpkyJjo6+ceNGVFRUVFSUr6/v+PHjtRwvE8b58+fPnz+vr5XcwyQnJ2vJXuPl5RUeHt66desPPvhg1apVQrcn1F7O6NGje/ToMX78+GXLlp07dy4iIiIiIsLLy2vatGnt27eXNXz06JGzs7NJTwZ9BeQpzfj4eP2Sx44da1K4UKFCPXr0+Oabb+R1tNlBe0MSExPnzp07cuTI69evp6SkyFr9+uuv2bTePCH72kcWLVoUGhq6bt26yZMnT5482cHBoWbNmo0bN+7QoYMc5FQTFBQ0e/bsixcvlixZMiUlJTY2tnDhwjVr1hRCNG3a9PDhw5s3b5bf+R07djg6OuoHftWz8cgwLi7uzljgo0QAACAASURBVJ07QogCBQqYlDdvqtPcvXu3bNmyFhdIG1PuR7J/TkJDQxctWqQfGW358uV3794dMWKEVkb21fPx8THfzPS/4rKYRTZu6tpv1aJFi+rWrSuvrRFC9OvXr2fPnlFRUfKqMiHE+fPnFUUpUqSIfCgXfvnyZXl6QVOiRAn9Gd6lS5cuXbrUfL3bt28n2Wch+ue8OEz6vGqtaNktu79j+oVXqVJlxowZERERR44c2bp165IlS3bs2NGtW7eLFy9++eWXWrHWrVtPmTJFay/QmhtMDnK0Jbdq1apz584LFy6cO3eubJg3f4GVKlWKjIycPn368ePHN2/evHTp0u3bt3fo0CEyMrJ3795CiPz58yclJSUmJrq6upq/J4qiyD7KJqPaf/nll3I484cPH44YMeLevXuTJk0yGSY8y8kG1zFjxvz00093795NTk6W0w0GQ5UqVeLj4+Xlwtlah9zp2rVrZcqUkf9n+Re7WLFisbGxhw4dmjt37qZNmw4dOrRz586dO3eOHDnyk08+GTt2rHZtm0z2O3fuLFmy5K5du+Li4jp27CgrExwcPHbs2A0bNnTt2vXp06e7d++uUaOGvqFH621l+x7A/MI8cyanxYQQrq6uXbp00TfMyX8uXrxo8WIS5Cok++ckMDDQ399/6dKlkydPdnFxEULMmDHDxcVFf1pZtvo8ffo0tV9xuYnKdiOLu2aLm7p5SVlsyZIl8fHxbdq00XrJV69e3c3Nbfr06Z9//rks4+bmpqrqw4cP9bP/888/cvBdTZMmTfTJvlOnTsHBwfq1y6WZ3DIDGWZ+ESFeBOa/6NmavE12Ham14WWe0Wh88OCB7KwsA2iVKlUGDBiwcePGJk2ajB079osvvpC9GmSCl30VbK/8lClTNmzYMHDgwIYNG5q8XSkpKQkJCTI8OTg4vPLKK5UrV/7oo4+2bdvWsGHDgQMHdurUKV++fAEBARs2bDh69Gj16tUtvuFydBQtOEqNGjXS7kkUHBzcuHHjXr16FS5c2OTOIVlLVdWjR4/GxMSYTDcajQcPHnxhO9krimI0GuVN3+RGlB3bTpUqVcaNGyeESExM3LFjx5IlS6KioiZOnBgfHy8734pnvWt27drVuXNn2RWnSZMmsiZ16tQpUKCAvNz2wIEDT548MemKY35tq3WqqsrxW41Go3aBrEh9v6FNzJ8/v3biXW/FihUk+9yPK2izl3Yxk8Fg6N279927d+UO99y5c1u2bGnZsqUcuEaSvwomnW30m5+8tkzeYMX2bTu1FCi3288//7zcM6+++mpCQsKZM2e0TVc25//zzz/6n8lGjRpdvnz533//vXz58okTJ8zXWK1atW7PdO/evXv37vL/zFzgD70Xs8kN1q9sy45+8Po1Zu32q9X26tWr+fLl69Kli/aUdiedoKCgpk2bPnjwQH9ZbQZeppeX1/Tp0+Pi4uTo4JqtW7dq99o06aVTv379l19++eHDh7KTpAxY8+fPT20V8v5xWn9l80/K399fZrvevXtfv349+zZhg8FQtWpVeQGVoijayAeqqpYuXTopKSnlhZScnCzfEJNebVni3LlzZ86c0X+mLi4ugYGB4eHhe/bscXJymj17tnbyxM/Pr1KlSjt37hRCyPFSmzRpIp9ycnIKCgq6dOnSuXPn/vrrL5HpTvaKojg5Ob322mvi2cGnNl1fbN++fdptcCziFydvIdlnL/1+pFevXgaDQY7SMGvWLFVV5Xlezdtvvy2EsHL7WDnCnRwpOb30t50TQpw8eXLHjh0VKlTo1atX7969Q0NDe/fu3bt3bznKm3bTx3fffdfd3X3NmjX37t3T5nV1dS1WrFixYsWKFy8uL0oDkFOyI6k8B1ptixQp4uHhsXHjxkuXLskp2gWgqqqePXvWxcVFdghMb4OlXosWLbp06RITE7Ny5UptojxLuXr16hMnTpgvNj4+3mAwyLF6g4ODfX19f/755/3795uPLLlt27bVq1eXLVvW5Fylibp16/bv3//27dthYWHZeqZFVdVKlSrNnz//9OnT3bp1c3BwkCeKL1y4YLGf5AvC4uBIWSIoKCggIEBeo2yiatWq77zzTnJy8uPHj/XlDx48eO3atcOHD1etWlXr7yqEkCl/y5Yte/bsyZcvX+3atTNZN1VVe/bsKZ5dqmtRSEiIv7+/HADKory1bwHJ/vnx9/cPCgqKjY19+PDh/Pnz/f39GzVqpN/RNGjQoHLlyosXLza5I7p09uzZn3/+2cnJqUOHDhlYu8mWKRvsv/zyy8jIyMjIyJkzZ8p/li1b5u3tvWrVKnlrDDc3t5CQkISEBJNL07SWwqdPn2agMgAgGQyGoUOHJiUlBQYGbtu2TZt+5cqVHj16HDt2rEePHrILotyJPXz48OzZs2fPnj2jc/r06TNnzphcwCppZ02nTJni6+srWy5lGXd39x49eqSkpDRq1Cg2Nlab5ebNmwMGDDh37lyHDh3kpa6ym2JycnLDhg3luMPadczz589v1qyZq6vrggULtL7UFqmqOnr06NKlS69atWrBggVZ9QZaUbZs2ZkzZ547d+799993cnIyGo2dO3dOSUl5Dqt+obRt21YIod0QRtIu7D569KiHh4e+u3xQUFBKSsrPP/8snkV5rbwcaHXbtm27du2qX79+5oe9UhSlT58+RYoUmTVr1r59+8wL/PrrrydPnnzllVfq1auX2pGPdlCUWsSnUT9XIdk/V6GhoYmJiT/99NOFCxdkE77J0BPymvoOHTpEREToW9k3bNhQv379Bw8eTJgwQY6Qo2d+TZj1aiQnJ8+ZMydfvnytW7c2ecrFxaV3797JyckzZsyQdfv++++LFSu2cOHCLl266MetNxqNf/zxh7wgWH/HewBIl0GDBg0ePPjs2bNvvfWWh4dH8eLFfX19S5QoMXfu3KCgINlxWbNq1apy5coF/Ff58uUDAgIWLFhg3i6r7WMLFy4cHh5ucpXC+PHjO3Xq9O+//zZt2rRgwYLFixf38fEpWrTozz//3LBhQ61vtKqqLVq0WL16tYeHR9u2bQMCAtq3b9+uXbsyZcrIa6VWr16tDUWQGkVR3N3do6KiFEX5+OOPn9sAgv7+/lOnTr18+XK3bt0URXmRm+2zyeDBgz09PceMGTNs2DCtO7uiKGfOnOnYseOVK1dMLvB4++23HRwc5JGAjPIaf3//l19+ee3atefOnQsMDMxkY7ncFlxcXMaMGSMPnqOjo7UNxGg0fv/99/JeWpMnTxbPrkYwX47W+yC1dEGjfq7CFbTPVatWrby8vMaMGaMoijxBZiIoKGjRokW9e/cOCwv74YcfatWq5eTkdOjQoSNHjiiK8t1333300Ucms9SqVcs8WG/btq106dL6KfoN8vfff79x40bHjh31g6Zrl9T069dv3LhxM2fOHDZsmBDipZde2rx5c6tWrRYuXLho0aI33nijQoUKcXFxf/31lxxLq3HjxtOnT9eva9SoUVOnTrX4DqxYsSLN3z8AL5oxY8Y0btx42bJlhw8fvnr1qoeHR4MGDZo0aSJbQGSZsmXLWh9YRg5E4+bm1qNHD4tDx7Zq1eq77747ffq0p6enEEJRFFdX14ULF4aGhi5fvvzIkSNXr14tUKBAgwYNGjZs+P7772tt8Mqze+IGBgZOnz49Jibm4MGDQogyZcr07Nmzd+/eJUqU0K8oODg4ICBA38tC89Zbb02cOPHAgQObN2/u1KlTRt6sDPH19Z0zZ87EiRPz9H2LcycfH59ly5Y1b9589OjRU6dOffPNN4sXL37ixIm///5b3iRh/Pjx+vKFChWqXr36nj17ChYsqPW30S7qbdKkyU8//SR0newzPOqlVqB79+7//PPPTz/91L59+woVKrz++uspKSl79uyRPYi+++47ecs25dnNEGiDz9NI9s+Vi4tL375958+fX6NGjVKlSsmJJttnu3bt6tSpM3Xq1EWLFsnGFWdn56ZNm37zzTe1atXSL83b21veHsWctnHKViJ/f3/971xsbKy/v7/+N1JfhzJlynTq1GnHjh1//fWX7NMfEBBw4MCBmTNnzpo16++//967d6+iKAULFgwKCgoLC2vXrp22HE9Pz5IlSxqNRo7gAaRLYGBgYGCg+XRt71S7dm1buh1r7eIWn9UG0NTv9Bo2bChvDmpl7eqzG4QNHDhw4MCBqRUzWYtF5rM/N15eXhnrzwkrFEV55513jhw5MmnSpBUrVsjBbRRFqV69eu/evXv16qW/E4L8qrRq1er69esNGzbU97eRX6EWLVpER0cXKFBAXvkqUmkRN5mYP39+f39/eS8aEzKmT5gw4Y033pgwYcKBAwdOnjwphHBzc2vduvWnn35ar149bYGOjo4lSpTw9va22P0mX758/v7+jF6dy3HHYMsqVKgwaNAgeUPE58Pk90P+c/fu3SdPnvj6+lrvvpnaotJ81paDfpMyCQkJt27dcnNzkwNl5OyQ6s//Y8oNWrZsWbp06UmTJuV0RZDtZsyYMWbMmDNnzuR0RYQQYsWKFb169dJfTJ+FTPYkVnYs8imj0ai/06qVRWV53UymZ7g9NZsMHDjw4sWL8kJhbnmhFxIS4ubmpvWwyj7x8fH37t3z8vIyub+BxvxzydjV4Rn7fBMTE2/duiWE8PPz0zcCprbY9GaGTHpuH5Mdo80+tzAf4EJRFP19Cm3foqwXM+nZb6WkfvBsbe1ubm76EwX8bADIPJOIrN/tmIQe+U9qsV78d6eU5m4zXV0aLE63pT01w6vOpOcZyCCpqlqwYMGCBQtaKWP+WaTrS2tlOeazmz90cXGRIz6ZLyfNO2bwjcoTuIL2ucrwGZIs3Ipsr0OaxwAWF8VZIAAZkFrcMYka1plfPmt9j2RjBM9kAYvln2cwIoQ9N5l/qzP8bbdl9vQ+yzcnLyLZP1cZ3kiycOvK7kWxIwCQU7IjmmS4UT+rygMW2fJFyqYvG9/h3IxkDwAAANgDkj0AAABgD0j2AAAAgD0g2QMAAAD2gGQPAAAA2AOSPQAAAGAPSPYAAACAPSDZI29jVF0AAACJZI+8jVveAgAASCR75G0kewAAAIlkj7xN641DxAcAAC84kr1lxMQ8Qd/Jng73AADgBeeY0xXIpZKSkj744IPo6OicrgisOXnyZE5XAQAAILcg2Vs2cODA27dv53QtkIaaNWu+9tprOV0LAACAXIFkb9mgQYNyugoAAABAOtDPHgAAALAHJHsAAADAHpDsAQAAAHtAsgcAAADsAckeAAAAsAckewAAAMAekOwBAAAAe0CyBwAAAOwByR4AALwoVFXN6SoA2Yh70AIA0qYoyv37911dXXO6IjClKIqWVhMTE1u0aJGz9cmdVFWNjIycN29eTlcElqmqqihKYmJiaGhoTtclbyPZAwDSVrt27TVr1uR0LZC2l156KaerkBt98cUX3bt3l/GRZvvcQP9ByM9F/l+8ePGcq5Q9INkDANLm6+vbtGlT8d/fYOQqMifx6VhUrVq1nK4C8DzQzx4AkA4Ex1xLURTt06FZOjW8M7mKjR8Hn5rtSPYAAORhFkMPB2Cp4Z3JVVL7OEy+1XxqtiPZAwDSjSa03IOO47ADFqO8viN+DtQpbyLZAwDSjSa0XIWPA3mUFtktfoe1iXzDbUeyBwAAQA4gsmc5kj0AAABgD0j2AAAAgD0g2QMAAAD2gGQPAAAA2AOSPQAAAGAPSPYAAACAPSDZAwAAAPaAZA8AAADYA5I9AAAAYA9I9gAAAIA9INkDAAAA9oBkDwAAANgDkj0AAABgD0j2AAAAgD0g2QMAAAD2gGQPAAAA2AOSPQAAAGAPSPYAAACAPSDZAwAAAPaAZA8AAADYA5I9AAAAYA9I9gAAAIA9INkDAAAA9oBkDwAAANgDkj0AAABgD0j2AAAAgD0g2QMAAAD2gGQPAAAA2AOSPQAAAGAPSPYAAACAPSDZAwAAAPaAZA/YP1VVX8BVPwf2/eoAAHkOyR6wf4qiWJyeJcHUykJUVdWv2vrqzJ9VVdX6wm2uY3Yxf2NzQ60AAC8skj3wojAPnaklfovzarPrlyP/Ty3Omixfe2gxxJtXRlEUK8cktlc+Y2x8mSYTZa1Se0PI/QCAbEWyB14UFqOwjVlTH7L1y1GeyWRNrCzBYqo2OUhIV2I2KWzxiMWWSsryFmtuku+1f7L7aAQA8IIj2QP2LM3Im2akznGyhvqsrK9Ymlk5zTMVFo9YrM+S3hUR6AEAz4djTlcAQDZSFOXatWs///zz3r174+PjnZycSpYs2bVr18aNG8sCRqNx+PDh4ln/Fn0vF+3/vn37lilTZujQoXL6V199lT9/fvN1TZo06fr16yVLlvzggw+0ifv374+IiDh27Ji/v39wcHBISIj2lFz+qVOnpk2btn//fldX1zp16gwYMMDLy0tb9Xfffffo0SOLL61WrVqtWrXSXqY2feLEiSkpKZ999pn+kEAI8dtvv0VGRsbHx9euXbtPnz6lSpWS0w8ePLh48WJhqYdPgQIFhg4d+s033wghvv32WwcHB5P3Vv7zv//9z8PDY+DAgdpTT548WbFixaZNm86fP//48WM3N7fKlSuHhYW9/PLLFl8LAABZQwWQp7Ro0WLgwIG2lDQajcuWLcuXL58QIiAgoGHDhjVq1HB2dhZC9OrVS5ZJTk52cXFxdXV1cXFxcXGR4dXR0dFF588//zQajVqQXbhwofm6rl69ajAYhBC1atXSJo4ZM0ZRFG9v78DAwCJFigghPv74Y61uRqNx/PjxTk5O7u7ub731VrVq1YQQRYsWPXDggLaEwoULCyFcLPnoo4+0RWnlo6KihBDlypXT1+3Jkyft2rUTQpQvX/7NN98UQri6um7dulU+O3fuXIv7RkVRihYtqqpq8+bNhRBr1641X53RaNy2bZsQYujQodrE2NhY+WINBkPVqlWDgoJ8fX3lAj/44IPExERbPjtp+vTpZcuWtb08AOAFR7IH8hjbk/3169ddXFy8vLw2bNigTbx9+/Zbb70lhJgyZYr635yqquqXX34phPjuu+9MFmU0GmXedXd3b9eunfm6xo0bJzvca8l+//79iqI0aNDgwYMHqqomJCR0795dCDF9+nS50i1btgghateufefOHTnLpk2b3N3dixcvnpSUJKfIZK8VkFJSUsyrp6rq+fPnCxYsKA9j9M9+8803iqJMnTpVFluxYoWDg0OVKlXkWm7fvr1z584dO3bs1GnYsKEQYsSIEaqqrlq1SgjRuXNni29yr169hBCnT5+WCz948KCLi4vBYPjqq6+uXLmiVe+PP/4oX768EGLkyJEWl2MRyR4AkC4keyCPsT3Zx8bGCiGGDx9uMv348eOKopjEXynNZN++fXt3d/fHjx+bFKhWrdpbb73l7OysJft+/foJIfQN8AkJCQaD4d1335UPZacdre1c+uSTT4QQW7ZskQ8LFy6sKMrt27fN62PyMDk5uV69emXLlvXy8tK32ScnJ/v6+laqVMn8Zc6dO9f8HVCfRfn69esnJyerqvr06VNfX183N7f4+HiTkvHx8e7u7g0aNNDqI7s5/fLLL+aLPXv2rLu7uzwPYCOSPQAgXbiCFrBbsv/MgwcPxH/HaalYsWJ4eHjfvn3V9F8j26ZNm0ePHq1bt04/8ciRIwcPHtT60MvFTpky5dSpU1WqVNHW8vjxYyGEdpBQp06dkJCQqlWr6qtRtGhRIcS9e/e0KRYraX4V7OjRo3ft2jVnzhwXFxf9UwcOHLhx40aDBg30E+XZg/Xr15sv+fbt26GhoW5ubrNnz9b6JnXv3j0hIWHp0qXqf4e7Wbhw4aNHj0JDQ2V99u7du27duqZNm+qvNNCUKVPm+++/b9euXVxcnPmzAABkHskesFs1a9b09fWdMWPG2LFjtaysXRT7+eefZ2DMlmbNmrm5uS1dulQ/ce7cuc7OzrIvu7YKJyengIAAg8EgHyYmJoaFhamq2rlzZ1msa9eu8+bNK1iwoL4amzZtEkIUK1ZMvyjrVFX9+++/v/322y+++KJOnTomz168eFEIUbp0af3EgIAAFxeX69evmyxHCPHll1/evn37s88+K126tJbjQ0NDhRDz5s0zGe5m5syZBQsW1F64LCB78lj0ySefTJ482dPTM80XBQBABjA2DmCfVFX18PCYOXNmhw4dhgwZMnz48CpVqlSrVi0oKKhVq1bu7u4ZW2z+/PkbN24cExOTlJQkL8YVQixYsOC9994rVKiQxVnOnTs3derU1atXX7hw4Ycffujdu7dI5VZTs2bNWrduXePGjd944w3tVQghRo0a5ebmpi9Zq1atZs2ayQIJCQndunWrXLnyt99+a772+/fvCyEKFSqkX6OiKJ6enlevXtWXVBTl8uXLUVFRL7300hdffCGnyLkqVKhQt27dLVu2XLp0yd/fX5Y/fPjw3r17+/XrJ69RFkLs379fVdWqVatafB/kokxuysuAmACALESyB+yTjIzNmjU7duxYeHj4+vXrjxw5cuDAgaioKA8Pjw8//PCrr77SImm6tGvXbuXKlevXr3/vvfeEEJs3b/73338nTpyYWkjdu3fv3r17nZ2djUbjhg0bWrRoUblyZfPCMTExYWFhxYoVmzdvnslTEydONOmTExYWJpO9oiifffbZ+fPn9+/f7+TkJJ/VF5b/u7q6mozp6eLiInsH6f38889Pnz4dNmxYgQIF5BStfO/evXfu3Dl//vxhw4bJKTNnzpTTtdnv37+vKIqXl5fQ3cdq7dq1O3bskJleTgwODq5du7bQHTlYfN8AAEgvkj1g50qWLDl69OjRo0c/evQoOjr6999/X79+/Y8//njgwIG1a9fauBB9+mzevLmzs/OyZctkspc9amTOtqhjx44dO3YUQqxbt6558+YNGzY8fPiwt7e3vkx0dHRISEjRokU3btyoJWMtCsfExBQoUEBfB9kdXwjx+++/h4eHT5gwQT9UvHZbK0VRHB0dhRDJyckmr8JoNGrnHGRho9E4b948Ly+vvn37mr+KDh06DBw4cO7cuTLZJyYmzps375VXXqlRo4ZWJn/+/Kqqyo5P2rr++OOP//u//9MSvNFoLFSoUO3atc2b8AEAyCT62QN2KyUlRT8Ovbu7e48ePZYsWXL69Olq1arFxsbKTu1pkpfbaw8LFizYqFGjVatWJScnJyYmLlu2rG3btq6uriazmC/n3Xff7dy58/Xr1xcuXKifPnr06A4dOlSoUGH79u3lypXT32FKjpFfs2bN+vXr19MpW7asECI+Pj40NNTf3//VV1/d8ExiYuKTJ0/Wr1+/a9cuIYSPj48Q4v79++p/718bFxcnh6mRDxVF2bhx45UrV7p16+bu7q6a3ew2f/78HTt2PH78+N9//y2EWLZs2d27d0NDQ/UlK1asKIT4+++/9RPlnbOMRmNKSsrKlSu1BZLpAQBZjmQP2KekpCQnJ6dSpUppY9FoOdXb21te5bl3715bFmWeQdu1a3f37t1t27atW7fu/v37+jvLarPcvn378OHDJtMrVaokhJADvQshkpOTu3fvPmzYsNatW+/YsaNEiRIm5c2PEPRTrly5cuPGjUuXLr377ruNnrlz586///777rvv9ujRQwhRpkwZIcTFixf1BwzXr19/+PBh2bJltdZ9IUR0dLQQolOnTloxkxcuO97IO1vNmjXL2dm5a9eu+pKtW7cWQsyZM8fi7Km9mQAAZBV64wD2ydnZuVKlSseOHVu2bFn79u3FfzOlHApTuxhUo/UOt77wli1bOjk5xcTExMfHFy1aNDAw0LxMo0aNTp8+fePGDe1qXUVRjh49KoQoU6aMXEXnzp2jo6M/+uijyZMn2xh59T1tSpUqtX37dq3O8txCmzZtXF1dFy5cKC+6LV++fOHChbdv365fiByxXrtOVy4zNjbW2dn59ddfT23VderUqVix4pIlS4YMGbJ58+Y2bdqY9Cl67733Xn/99f3790dGRsrhdEzIt12PfvYAgKyUBWPiA3iObL9T1ZQpU4QQHh4eEyZMuHv3rvrsBk/Lly93dXWtWLHikydPZEntRktp3qlKK9y4cePChQt7eHgMGjRIK6bdqcpoNP76669CiMGDB2vPrl+/3tHRsVixYrJvzM8//yyEaNWqVbIZbRZ5D9rbt2+b3JrKCj8/P/2dqlRV7dOnjxBiwYIFsmLHjh0rVKhQ0aJFtTtPGY3GK1euCCEqV65sfeHjxo0TQshhLteuXWte4PDhwwUKFDAYDH379j158qQ2/dSpU8OHD5fX+IaHh9v4WrhTFQAgXUj2QB5je7I3Go2ff/65drul11577bXXXpMt2b6+vkeOHDEvb5LstTyt9dfXCs+YMUNmfdmtXHJ2dpbXhkoyAb/55ptDhw7t2LGjg4ODv7//sWPH5LNFihRJrcVh5cqVsowc+l3eg9ZKuNc/pSV7OdFoNJ46dapgwYIGg6FTp079+/eXI+jHxMTolyDvvfXee+9Zf0tv3Lgh03mJEiVSUlIsltm3b1+5cuXkCylbtmydOnVkX38hhLe3d0REhPVV6JHsAQDpQm8cwD6pqqooyrhx4z799NOIiIhVq1adPn366dOnL7/8cufOnfv27evh4WEyi6Io5cqVCwwM1O7rpB8APjAwUN9vpGXLlosXL/b29q5evbo28Z133ilfvrz2cNGiRZMnT46IiJgwYYKPj09YWNi3334rh74RQlSvXl2OO2nSHUVVVa2Xy9tvv33//n05iI2VXiv6p+rVqycv59U6uwcEBOzevfvrr79et25dQkJC1apVR4wY0bRpU/0SnJycAgMDzW90ZcLHx+eTTz7Zv39/27Zt5dW9wqxHzeuvv378+PE1a9YsWbJky5Yte/fu9fT0bN68edeuXVu0aKFdaqw+G/yH3jgAgKzy/w8qvi1vSgAAIABJREFUByCvaNmyZenSpSdNmmT7LBbjo/VMmeazIqMXg5ov2ZZ0m94EnK7yGY7X1tN55lP7jBkzxowZc+bMmcwsBADw4mBsHMD+ZWCQFn3fG4vPZjiz2jijyXoVRdH6+mdyLeavKF2FzWdMbfYMLxYAgIwh2QMvKFvCpe0JXjW77avtK7XxfILW+yUz0hupzU8vaP+ndqShlbGyLv1omwAAZBWSPfCCSq0DSWrlVbObN6W2NBs7xFuvm3YxkC3l9dJsZc9MU7p+3tSONPQXJ1hfGgAAWYtkD+D/STOUZ3kPE+sdfmTET9da0nvEkua82YfoDwDIWiR7ABlk3hU+AzOaNKKn1glem55aPxZbOsQDAGDfSPYAMiiTF56m6ymT6ebFyO4AAJDsAaSbxSZzk5Z42+dN7Snznv2ZvOQ0CxcFAEAuRLIHkG7m3d+1TjXp7Qevj+8WG+atXJtryyg0+kMOk0Vp09M1niYAALkW96AFkBFajk+tn4z1+zTdvXv35MmTRqOxdOnSfn5+qZW0fhMoW0ahseWpLBlPEwCAHMfvGYB007eC//DDD8p/FShQoE6dOj/++OPTp0/N54qOjq5Ro4aXl1edOnXq1atXrFixqlWrrlq1yuKKZMt6QECAwWAYNmyYfrr8Z9q0aYqiGAwGg8GgVcDFxSUgIOD999/fvXu3fmmlSpUyr+q77747Z84ck6oCAJAX0WYPIN3MR7OpUqWKp6ennPL48eP9+/fv2rVr8+bNa9ascXR0lOWNRmP37t0XLFiQL1++1q1bV6hQwWAwHD16dNOmTa1atWrZsuWiRYtcXV1N1rVly5YzZ84UKFBg1qxZ3333naOjhb3W66+/3qxZM+1hUlLS7t27IyMjZ82atW3btrp162pPubi41KpVS3sYHx+/devW9evXT5w4cd26dT4+Plnw7gAAkENI9gCywIQJExo2bKg9jIuLq1u37oYNGzZs2NC0aVM5cdiwYQsWLKhXr96iRYuKFSsmnnWquXv3bsuWLVetWvXRRx/NmDHDZMlRUVHu7u4ffvjhmDFjli9f3qFDBzld31GnRo0aI0eONJlx/PjxgwcPHjx48M6dO7WJRYoU2bJli77Y7du3e/XqFRMT8/HHHy9atEi/WOsdigAAyG3ojQMgg6zcI9bT0/N///ufoih//fWXnHLjxo3JkycXKlRo1apVMtaLZ51tChcuHBMTU6RIkcjIyNOnT+uXc//+/ejo6KZNm3744YcODg7h4eHaU/rMbfES2EGDBhUoUGDXrl1xcXFWXoW3t/eSJUvKli0bHR1969YtG2+mCwBALkSyB5BBJjeZEv8doyY5OVlV1dKlS8uHMTExSUlJHTp0KFy4sHZIoDWKe3h4fPTRR6qqrly5Ur/ABQsWJCQk9O/f39/fv1mzZps3bz516pQwGwzHYgS/d+9eUlKSwWBwcHAwr56em5tbnz59UlJS5syZk873AACAXIRkDyAL6EeoTEhIWLdu3fDhwz09PVu1aiULHDx4UAjxxhtvCN0hgT6Rt2vXTgixZ88e/WIjIyP9/f0bNGgghGjbtq0QIiIiQtjQmp6QkDBgwIDExMTg4OCCBQtqlUzt5rX169cXQqxdu1Yw1D0AIM+inz2AzFIU5d1335W5WVGUlJQUIUSxYsV27txZqFAhWebKlSuKovj6+prPLucKCAhwcnL6999/ten//PPPvn37Bg8eLEelbNasmZOT0+zZs0eNGuXi4qLvBP/bb7/pu/EkJSUdPXr07t27RYoUmThxoklVzSsvhPDz8xNCnD9/3mIZAADyBJI9gMxSVbVy5coeHh7yYXJy8vnz569evdquXbvly5eXL19eCJGSkqKqqsWR47X2excXl6SkJG16ZGSkEKJLly7yoaenZ/369Tdt2hQdHR0SEqLP31euXLly5Yp+mfXr1+/SpUvnzp21WqX5Ekweku8BAHkOyR5AFpg4caJ+bBxVVadOnfrxxx83b9782LFjDg4O3t7eQoj79++bzytj9MOHDx8+fCiLCSESExPnz5+fL1++mJiYmJgYraQQIjw8PCQkROjuXNu3b9+pU6fKMnPmzPnkk09Onz5dr1691GK9eXA/ceKEoiglS5aUD4n1AIC8iGQPIONSa9tWFGXAgAGTJk06derU/v3733zzzapVqwohjh8/ntpta+XYlJUrV5YTV6xYcffuXSHE119/rS+pKMr27duPHj1auXJl/X1wtXHue/fuXaxYsaZNmzZu3Hjfvn1FihSxcqNczZ9//qmqau3atTP1dgAAkKO4ghZ5GFc65jiL16RqT8mBcR4/fiyEkKPaR0dHp3YN6+TJk4UQwcHBcmJkZKSiKEeOHElKSnr6TFJS0jfffCOeXUcr/vsd0P5v3Lhxx44dr169OnToUGFDA3xKSsqSJUuEEM2bN0/HiwcAIJch2SMPk7GSfJ+zUnv/z5w5s3379vz589eoUUMIERAQ0KZNm5MnTw4ePNhkXkVRfvrppzVr1gQFBckuPRcuXNi4cWPVqlUrV67s5OTk4ODg+EzXrl2FEHPnzpUHDKkNPz916lQfH5/Zs2dv3LgxzQoPHTr0/PnzDRo00N+eFgCAPIfeOBZw8VwewieV4+RFsfPnz//rr7+0bef+/fuLFy9OTEwcMmSIm5ubLBkREXHy5Mmffvrp+PHjX3311RtvvOHg4PDPP/+MHz9+4cKFpUuXnj9/viwZFRWlqmrXrl3lAvU3hS1XrlzNmjV37969ePHinj17plYrLy+vadOmtW3bNjQ09PDhw/nz59cq9sMPP2hLu3379tatWw8ePFikSBFtMHv2AACAPIpkb1mjRo2OHz/u6uqa0xWBNYmJiWPHju3cubN8SCB7zuQbLpvAZ8+ebdIW7urqOmLEiK+++kor7O3tvWfPnh9++GHixImxsbH62evVq7dkyRI5JqbRaIyKijIYDJ06dbLYPz4kJGT37t3h4eG9evWyUr02bdp06tRp0aJFgwcPnjZtmpx47969b775Rl9Vd3f3Tp06jR8/Xn9n3My9MQAA5AySvSmZNk6fPu3n59enT5+crg6s6du3r36sFQLZcybf8G7duuk7saiq6ujo6OXl9fLLLzs6OsruUlq7e758+X744YdPPvkkNjb2zJkzRqOxePHidevWfeWVV7QlJCYmRkVFubq6alHbRK9evSpVqqQoitFobNGiRbly5UqUKGGx5PTp00NDQ7WB9ufPn5+QkKCvf/78+atUqSLPKnBkCADI60j2puRPu4uLS+/evUn2udz48eOJYjmuZMmS2mCR5ix+QN7e3t26dUttFjc3t6CgIPm/1riuX07+/Pm1ETb9/PxMDgC0vvtCiAIFCujH4qxbt6756rhOAwBgN7iC1gJ+6fMQPqxcRX4caX4oJnHfZHwb/UPlmdTKW7ynrDYaZroqw1EiACCvI9lbwA98XsEnldtod5PNwFza/2nOrg/uWVUZDhEBAHaAZI88jDT2Isva4zqOEgEAdoBkDwDIXbhPBbIV3y7YMZI9ACC30C6AtnJ7YyCTOEcHO0ayBwDkFvpAT/zKi3Lt8ZiNl9QjF+JTSxeSPQAgt+CuAnldrv34MnZ9P3IDPrV0IdkDAHIL2WZPEx0APfYJtuNOVQCAXCQpKSkuLi6na4G0GQwGHx8f+b/+DnG507179548eaI95EKOXMvNzc3Dw8Pk9F1u/mrlNiR7AEBuoarqzp07AwMDc7oisEkeuijiww8/XLhwoSDT53rvv//+jBkzcv83Ktci2QMAcgvt5/zYsWMksNxs8+bN/fv3z+lapIOqqvXq1ZsxY4Z2KS3ZMVeRn0jPnj3Z6jOJZA8AyF0URalUqVJO1wLWXL9+PaerkD4Gg6FChQoVK1bM6YogVaqqBgQE5HQt8jyuoAUA5C402iGb8NXKzThNlyVI9gAAwG4RFvMQukhlHskeAADYLYtDrBD3cyc+l8wj2QMAALtlMSzSNgx7RbIHAAB2ixCPFwrJHgAA2C06eOCFQrLPRTK599HG6M2i6qR71bltUQCQG2R458z+MEvQZi/4Lr1ISPbZzvbNKZN7Hzm7NmiUlfXaWKVM1tz67Kk9y6BXAOyMtnO2Xsx812fjrtWWKchVMvYBpTaXLYeOGfj6IY8i2WcNKzvW1DanDMTrdG14VtZr4yFElhxp2PKsyeuifQVArqWqapq74sznNitLMN9D2jIFuYqNH5DtP47mv+wWv0Lp+l4hjyLZZ5x+CzFvaZYbSea3IovDdZlUIEsOtW35ubJxOektwA4FQF6hKEqau6w0G3Qs7icNhv/3i2w9w1lfO42vdsP2nGA+mqfFefm1fRGQ7DPOZAuxGOXNt6LM73PNt1uLNUlNas9a+bmyXmej0WjL8k2qzW8PgDwhXTsr6+3uWhuQ+UlLW9aizZu1zTp4zjJ8Kt4W1o8JzVfNV8j+OOZ0BeyNoig3b97cunXr1atXvb293377bT8/P+3ZJ0+enDhxwvoSKleu7OTkJP+/c+fO5cuXPT09S5YsqV+F/Of48eOJiYn6eQ0Gg5eX1//X3n3GR1E1bh8/k5AeSKgJRSCFdiMoIBrpJEBQiDTpolLUIGooyg1IURAEUekQWlAEQRSkN5EAIVTpVYoUQaUGQgppO8+L8zj/uXc3m4X04fd9kU929szs2ZnZ2WvOnjlTvnx58e9vc2lpaadOndLCtKqqsllI/i+nV6hQoVSpUmbVuH///qVLl7y9vStXrmx2pLh79+7Vq1e1ql64cCEpKcnyjcjXKlasmJ+f34kTJzIyMgICAooWLWr2LoQQ8fHxf/zxR5EiRZ5++mnbKwcAcoM8HsbHxx84cODcuXOOjo5169atX7+++N+D1fnz5xMTE7WHiqKULFmyQoUK+imqqt68efOff/6Ry9Tyk345zz77rPzn2LFjmfWaUBRFO2bKQ6j2rJOTU7ly5YoXL64d2238uov8cuXKlXv37lWqVMnb21tOkVvq9u3b169fd3V1rV69utxD5CZLTk7+/fff3dzcqlWrdv/+/WPHjhUrVkzbVU6dOpWWlqbtUQ4ODr6+vmXKlDF70atXr969e1fo9goHB4eMjAz5f4kSJSpWrCiEiIuLu3Llin5GRVGcnZ0rVqzo4eGRq6sFuU6FNVWrVp0zZ86jzpWamjpkyBD9UdXR0bF79+5nzpyRBY4fP55lh8hr165pC+zatasQolKlSiaTyfLl5OfTko+Pz8cff5ycnKyq6l9//ZXlPjBz5kzLha9cuVII0b59e7OXvn79ekBAgBBi1KhRcspzzz1nY+GhoaEmk2nQoEFCiO7du1tdb2FhYUKIkSNHPuoKf7zNVNi98sorERER+V0L5IV58+YFBATkdy3y2vbt2/PluykyMtLV1VV/+KpTp86GDRv0ZWTWN+Pu7l6rVq3o6Git2OjRo20fddPT02VJ2z1wNm/eLIu5ublZLqR06dLh4eHnzp3Ls1Wkl1+b6bH16NGjb9++efmKI0aMEEJMmDDB7Gv09ddfF0I4OzsnJibqpy9fvlxRlB49eqiqGh0dLYRo2rSp9qyvr6/lruLp6dm0adPTp09rxd544w0bO17Pnj1lscWLF1st4ODg8Oyzz/7000+5uF5syvvNZDy02eekfv36LV68uE6dOr169apcuXJcXNy6deuWL1++cePGgwcPVqlSpVSpUjKTyfInT5789ddfn3766eDgYPHvGbanp6d8Ni4ubvXq1RUrVrxy5cqmTZtefvll9X8bZlRVLVasWO/evbV5VVW9cuXK9u3bx48fHxMTs3PnTg8Pj4iICPFvS9Lvv/++efPmqlWrtm7dWlvUM888Y/lerHb1uXnzZkhIyMWLF0ePHv3pp59q1VAUpVu3bqVLlzarnqIoNWrUUBRl/Pjx69atW7ZsWd++fUNCQvQvtHz58nXr1tWrVy/L70IAyCXTp0+PiIgoWbLk4MGD5SHx6NGjs2bNatOmzfr1619++WV922qXLl3Kli0rZ8zIyDhy5MjevXtbtmy5YsWKDh06aMsMCgp64YUX9K8iF6L+b6AvV65c586dtWf1fytXrqzNKIR47733HBwc5I+xV69ePX/+fGRk5DfffLNt27aGDRvm7grCowsJCZkwYUJMTMzw4cO1iaqqbtmyxdPTMyEhITo6uk2bNtpTMTExqqqGhobKh5ZdZL28vN58803tYUpKyp49e3bu3BkUFLRr1y79V3nv3r2LFi1qea6otcTJHFKtWrXWrVtrz6anp585c2bXrl2vvvrqd99999prr2VzDSB/5O2JRKHxGI3Bv/32m6Ior7/+ekZGhn765MmThRD9+vWznGX27NlCiPDwcKsLnD59uhBi0aJFTk5OYWFhlgUqVqxYuXJly+l//fVX8eLFhRDHjx83e+r7778XQnTr1i3Lt7Nq1SohRPv27bUpt2/flr1lRo8erS9Zr149IcTBgwdtLM1kMsXExDg4OFSrVi0lJUWbfuvWrTJlyri6uuqbHOz3ZLbZt2vXjjb7JwRt9nmmUqVKpUqVun79un7ioUOHXFxcnnrqKa2J/fnnnxdC7Nu3z2z2ZcuWCSEqVaqkqqrJZJLtFJ988olZMctfXx0dHRs1apRl9dzd3YUQCQkJZtNHjhwphKhcuXJaWlqWC8lZtNln6eHDh+7u7l5eXvpUcOjQISHEhAkThBAffPCBqtsrnn76aUVRbty4of7bZt+8eXNtRh8fH3k00MqbTCaTyfTxxx8LIUJCQuRE2WZ/6dIlfRntf21p3333naIoVn9Ily9doUIFszCTN2izzz6uoM0x8ljfpk0bfWOMEGLw4MFubm6rV69WH/E6lYULFzo7O7/66qutWrXauHHjtWvXhH3jFvv6+r700ktCCHkEeWz60/179+61bNny5MmTo0aN0lrrH2lRjRo1+uCDD37//Xd5qiMNHDjw1q1bX3zxRY0aNbJfySfEo+5IAGyLj4+/cuVK3bp1tZZ4qW7dul26dPnzzz/PnDljewndunWTv6+ePn1a2ByowGzK432ctbnGjRsXHBx8+fLljRs3PsZykKtcXFwaNGgQHx9/4sQJbeLmzZtdXFw++OADf3//zZs3i3/3iri4uFOnTj377LP6rvO2dw/ZqN+tWzchxOXLl22U0f7XL1mynKVZs2Z+fn7Xrl37448/7H+zKDhI9jmmatWqQog5c+aYXU7q4ODwzz//nD9/3s4juCx2+PDh48ePt2zZ0tPTs0+fPhkZGfPnzxd2j2SclpYmhMjmdTBahR88eNC6desjR46MGjVq7NixtgvbeJuff/55YGDg+PHjL1y4IISIjo5eunRpy5Yt33vvvexX0ngM/NaAAsXd3d3d3X3v3r3Xr183e2revHlxcXH2ND3IX0ofPnyYnQErRSbHUrMZ9S/x3//+Vwih7zbNoaPgaNGihaqqu3fv1qZs3ry5cePGHh4erVq1OnfunHYZ665du4QQ+r4xdpLD01nd6+zfE/Ql4+Pjb926pSiK3KVR6JDsc4D8SISEhNSrV2/Hjh1PPfVU3759N2zYEBcXJwsUK1bM29vbrC0/s+XIz2dUVJSqqj169BBChIWFlS5deuHChfqxEUTmH9p169atWbOmZMmSLVq0yP5bS0pKatOmzf79+z/66CPLWK/VwZ62c1dX10WLFj18+LBPnz4PHjx46623ihcvvmjRosdrdzd7+8b7Mlu2bNmkSZMePHiQ3xUBDK5IkSITJkxISEgICAgICwtbuHDhxYsXZWBydXX19vZ2dHS0OqN22Dl37tyJEye8vb1r1qwpLMYC1gpbvUOf2UDAmQ1nnNlLBwUFKYoic6E2o/GOh4WRqqryW1h2oBdCxMfH7927NzQ0VP23P/3WrVtl4V27dqmqaiPZZ7Zj/PTTT0KIqlWr6je6Yt9tjy0XnpGRER4enpCQ0Llz55IlS9o5OwoUrqDNLlU3sNTGjRu7d+++ffv2qKioRYsWqaoaGBjYtGnTQYMGycO95Vx62pTk5OSlS5d6eHi0a9dOCOHk5NSzZ89p06atW7euffv2+vI3b96UU+ShPDEx8cyZM9evX3d3d1+xYkX2T7hTUlLCwsJiYmKEECdPnrSstvawefPmVr/8tm3bJi/ZkfM2atQoIiJi6tSpDRo0uHjx4g8//KAfFdR+NmpiGB06dHB3dx82bNgnn3zywQcf0HwC5J6IiIikpKSxY8euX79+/fr1Qghvb+9mzZq9++67LVu2NCt8/vx5V1dXGaQSExOPHDkyefJkk8k0ZswYFxcXrdjEiROnTJki/9en7aFDh44YMUI7ZO3du1cbFVHv+eef37p1qzzW2fi+KFasmJub261bt5KTk7UhdIx3PCyMFEWpU6dOiRIldu/eLbfItm3b0tPT5QgWISEhTk5OW7Zseeutt4QQO3bsKFasWIMGDTJbmqqqqamp2jCpiqLExcVt2LBB7mPvvvuufqPXqlVLa0zUnzQeOXLEz89PW0JMTIw+VNy8efPMmTP37t2rVavW1KlTxaPctB4FB8k+u7SdXlXVMmXK/Prrr3/88Ud0dPSBAwf27Nlz8uTJCxcuLF++fOXKlfIEPbPDtN6qVavu37/fvXt3rTtN7969p06dOnfu3FdeeUXf9p+enq71rrtw4UJiYqKXl9dHH33Uv39/Pz+/7L872Qtw9OjRMTExmzZtmjhxov4af/0aCAsLsxxYVwhRunRp8b9HhwkTJqxfv/7kyZOvvfZaly5dMntp2weUJ+FY4+bmNmHChBEjRowbN27ixIkDBw4cPHiwXJ8AcpA82gwfPvz999/fsWPH3r179+7du2fPntWrV69evbp///4zZ87UH3h79epltgQ3N7dPPvlk4MCB8qE8QNWpU0decWt2NKtTp45+3jJlysixcfTFFEWRA+PY04RPC32B5eDg0Lx585UrV166dKly5cqbNm0qX768HIuiaNGiL7744vbt200mU2Ji4rFjx8LCwooU+f+pzOrm/vPPP7Xh7cW/p4ve3t6ff/65fowdIUSnTp2KFSvm4OCg79ylKErRokW13Uy2BsoIkZKSIm+207hx4759+3bv3l3eV+dJ+Ko1HpJ9ztAfkf39/f39/fv27SuEOHfu3Keffrps2bKuXbveuHHDxcXFns+J7Ipz8uRJ/cl0kSJFtm7deuXKFS2yK4pSrly5o0ePyofXr1/v0aPHrl27Dh48OG7cuOy/KXnUkANcXr9+vXbt2qNGjWrYsGGTJk0sY/eQIUPkIDlZcnNz69q16/jx42VDhVV2thNkZGTIu8YYtV0hIiJi8uTJcXFxGRkZX3/99ddffz1gwICHDx/md70AQ9GPDt62bdu2bdsKIe7fvz9r1qzPP/98zpw5DRo0kCMAypKTJ08ODAyUD4sUKVKmTJnatWvrW+ul0NDQMWPGWH1F/SErICBg6tSpJpPJdo9N1dodr4QQ169ff/jwYfny5a2OeY98FxISsnLlypiYGD8/vy1btrRq1Up7KjQ0dNeuXSdOnPj7778zMjLk0BeS7NBlds7m6+srh4OT7YPOzs7lypWrWbOmdj6glR8zZow2ZKpVsmTr1q3lsE5CiF27drVt2/bAgQMRERHOzs6W5Q35JWtIJPucoSjKggULPDw8unfvrp9epUqVpUuXPnjwYN26dbGxsXLcerMZzT66ly5dio6OLlmyZEZGhrzSVCpbtuy1a9fmz58vR8sSFp+08uXL//zzzy+++OKOHTuGDh06bdq07HwUZcVCQkLkSDjly5efP39+p06dunXrduzYMa3lWLu43uqgPZatTer/3pTRxqvbU8nU1NRFixZVr17dSE1WZp1uO3TosHjx4vT09NTUVCHErFmzUlNTr169evXq1cxuVQbgkezevfvo0aOdO3f28fHRJnp5eY0YMaJ69eqdOnXatGmTfmzvJk2ayMZ46TGOtJYd7rO8EMtyRq3yqqo2atTokSqAvKGqasuWLRVF2bNnT+3atf/880/Zk17uM61btx45cuTRo0fld70+2VvtKO/h4aFv77P0GB3rtXo2adJk1apVrVq1evPNN2vVqiUHBXmMJSPfkexzzJQpUy5dutS+fXt9w4n8MDRs2HDdunVWm1otvxJkB/2vvvrK7E5y165dq1y5clRU1Keffip/JrNUokSJ9evXP/PMMzNmzGjfvn3z5s0f++3ILxt5Y3OpY8eO/fr1W7BgQY8ePbZs2SK/h2xcqqXobuyin2j2T3YoinLq1CkbXXoKHblaTCaTtn5MJlN6erpWQOb7s2fPvvXWWytWrPDy8sqXegK5Ko9jRGxs7LBhwzw8PHr37q0/aqmq2rhxYyFESkqKvrzZqDXa2bid1c7mmYDZQhYtWiSEeOWVV7L/KshxiqIEBgY+9dRTJ06cWLdunYODg7ymVuuvVbp06RMnTpw4caJGjRpPPfVU7tUkswu4tXoKIVq0aDFgwICZM2f27t07JiYmy57DKJgYGyfHdOrUKTk5+cMPPzQbwSYhIWH+/PmKoli9LbkZk8n0zTffuLq6duzYUfzvZ69ChQphYWE3btxYvXp1ZrOrqlqlSpX//ve/qqr26dNH9lTJQdOmTatateq2bdu0QXLsuWwgs6pm/5Dh6uo6Z86cRANJSEhISEhISkpKSEiQU3r37q39yi9vP+nl5dWxY8ctW7YQ6yF0nTTyuyI5KY/fTqdOnRwdHb/66qt//vnH7Lg0ceJEIYR2W1D9CGbSo7ZW2D70/TvIuPnbtxxsRy5kzpw5W7ZsqVOnjuypb1kgDxhs38sNISEhFy5ciI2NrV+/fokSJYRuR5I3itm7d6/VUXHs2Yg21r9ZJ3vLJVvOO27cuPLly+/Zs2fKlCnE+kKKNvscM2zYsNWrV0dGRu7evfu1115r2LCho6Pj+vXrly1bdvHixc6dO1te+2j5c9jWrVu/o2JSAAAgAElEQVT//PPPzp07y8ZyswL9+/dfvXr13LlztVuRm80upwwbNmz58uVnz54dMmRIZGRkdt6U2Uu4u7svW7YsKCho3LhxjRo1atGihXZ0WLFixb59+5R/752uzVukSJHw8HDLSop/v8M4dmRGVdU7d+7Mnz8/PT1drqWaNWtOmjRpzpw5udq0gwLL7POSnp6+dOnSv/76a/jw4XyOsiMwMFBeql6jRo1+/fqFhoaWKlXqwIED33333e7duwMCAsx+Qc2s86FZF8QDBw7MmDHDctMoitKuXbsKFSrIh3///ffMmTOtVuy5554LCgoS/x5O586dKztAp6Wl/fHHH/v27fvtt9+KFi26cOHCzH7IzQP2p88ndi9t0aLFokWLoqOjtSEotFXRunXrPn36pKWl6bviaOw5a7K6gy1evFieQmhT5KI8PT3ffPNNYbFFtF3Xy8tr6dKlwcHBo0aNCgsLM+uTg0KBZJ9j3N3dt2/fHh4e/vPPPw8dOlSb7uXlNWrUKHkPcI2+u7l+ysKFC4UQPXr0sPoLb8uWLQMDA7dv337+/PkqVaqYXXGlFXN2dp4/f36TJk3kOYC86fSjHlIzawisW7fuZ5999t///rdnz57Hjh3z9fXVLinTF9PenYuLiz7ZZ9Zs8MQe8TMjV8jHH38sY31gYOAXX3zRrl07RVEiIyNZXU8mLTuaTKbvvvtOfkNfvHgxv+uVW/LyyPDpp58WKVJk6tSpX3755Zdffqkdwdq0aTN16lRnZ2fbv09a9opWVXXjxo2Z3Rq2Ro0aFSpUkC9x8eLF999/32qxYcOGBQUFacfhIUOG6J91cHBo06bN+PHjn3nmGf30AnhELWj1yWMhISFCiNTUVO3HH02rVq3S0tLc3d2bNm2a5XKsdgMTFltcVVWrl24rilKuXLk33njDck/WP2zatOnIkSPHjh0r++TYeQUICg7uZ2FdtWrVBg0apI+k9rtx48bJkyfv3bsnhChZsuRzzz3n6ekprB1tHz58mJCQ4Obmpo1uKUdBKVGihP6zpJ8xISHh4cOHRYsWdXFxkXfCKl68uNXjuFyUq6urfHUpNTU1Pj7excVF34HeKhslZVuyEMLT09PV1fX+/fupqana6Fr6MxZZK3m3C30lk5KSkpKSvL29tSv6H092NlPBFx8fL/vbLFu2rEuXLtou0a5dOz8/PznYMIxt/vz5kyZN0l9Jn56evmTJklGjRsnBNNq2bbtu3Tr5VJaDqxQW0dHRwcHBefzdJA9QycnJhw8fvnXrVnp6uru7+3/+8x+zAUbu37+flpaW5bFLHuLMJuqPjV5eXrKV/c6dO/oDptm7ljfH1RfTl7HnSJ57HmkzFYSTjZ49e7q5uS1YsCBfXv3u3bsZGRmlSpWybM+6e/euo6OjWe/Ke/fuHTlypHjx4s8++6wsfPfuXQcHB29vb9srU4YEyx+RJEdHR3lrlJSUlAcPHmS2C5lMprt37wohzNJIHsjfzWQMtNnnPB8fH22ABavjw2hcXV3NxsGUHzmtvVzfDiQfenp6akldu3WR2cm6fGj1xkbOzs6lSpXK8i2oqmqjpKIo2lOqqtrZ21tfSe3rKvsMeWoqN+K2bdu++eabnj17ZvP8B8aQlpa2ZMmS0aNHy0wvhHBwcJg2bZpWwBixXpMvWdDNza1BgwY2XtfOw539hzh7bvOpqqplMRtNtnnPss04JSVl0aJFYWFhstNRvsf6fKfvGyP+d4Xon9LWpLe3tzYGhpyiFbNcmfpeADIkZLlLuLi4WI7TqnFwcLAnKqBgIjHkriwPZ1ZDueUPu0KX720vNkcOoJkdOB7j5SyP+Dl7iDfkF4Z8Ux07dszttYdCIS0tbe7cuZ9//vmNGze0C/QdHR2bNm16+vTp06dP52/1ctzx48dF3nbVs2yCebwejI96PLRk+cOLPcfefDwsyMul9HVOTEycO3fukCFDunbt2r9///yqWMFhY6NneYTPbF6z6WaZwepcfH08OUj2OSNHPjO2l2C7l6edHruej/26udex/kk4TtnoCoknx8KFC99//32zrhoZGRm7d+/et2+fMNxnQd+PxWqPghxnufzHeEV7ZsmyjOUPL1bXQMHZ4vpvpfj4+NmzZ0+cOPH+/ftCiBy5YaIB2N8SZ3s/tN0FIMtXtCdg2CiAQoRknzPy4CORS43x+SKn3oshu+IAZsLDwzt27Dh58uTp06erqpqWliaEcHBwqFmz5qFDhwrIhzoHTZkyZfDgwdrDnH2D9jeg6qdk9mNpjrTTZ8n+wJdf4uLiZsyYMXny5JSUlLS0NEdHxyFDhlSpUiV/a5XHcrvFyv49zc5TQftPFbKsGwoUkj0AFHRlypSZPHnyRx99NHHixJkzZyqKkpqaeuTIka1bt+qHWjfG967l2O05yM4GVLPfSB87bNlZJjtsLD8Pdolbt259/fXXU6dOzcjIkOecQggPD4/BgwdrN2csIK0wZreaySW2r3+wPEW02q/G6rxZsrG7Zn8nMczh5UlAsgeAgkv/bVqmTJmvv/562LBhkyZNmj59enp6euvWrfV3LDYGey4qtd/jJRKzPjBZXq6as7nnsZdmIyaK3DnHKFOmjNkUBweH+Ph4X19frQ4FIdYLIRRF6dOnT64uX/zvSrYnYWfW3yxHdgDbLCucZWEUCiR7ACi4LFNRmTJlvvrqq6FDh7799ttr16795ZdfWrZsmf2LcAqOSpUqZX8hZgMSPIbMorydnZgLVBtn7tVk586dQ4cO3b9/v4ODg/yxRVXVihUrfv/99wVtsCb9EO+5tHUe+zQypxabzW5aBWqnxWMj2QNA4aD/3vXx8VmzZs2NGzdiYmL4MraUg+vE9qIyu41Adq79tdHdP/u9pXNWkyZN9u3bt3379qFDhx4+fFhRFJPJdP369cuXL/fs2TOPK2NbqVKlzO61kuMeqVuL/Rdp5MhelEuzoAAqWKfUAIDMmDXICSF8fHxeffVVYa1pHzZktrq0e4nYvygZ663OklM5yXZwtycdWv0/BwUHBx88eHD9+vU1atRwcHDIyMjo27dvamqq/hXzfRfN7d+1HvUNWj1Je+yF58HqzfctCDvRZg8AhZ7xGttyqmOAqqqxsbHbt2+/dOlSampq6dKlX3jhhY4dO5rdpke+XHp6+oYNG2JjY//66y83N7datWp16dKlbNmy+jsBmUym+fPnFy9evGvXrmZVVVV17dq1//zzT/v27X18fNatW/fXX3/ZqFvdunXr169/5MiRAwcOmD2lKIq7u3uVKlVeeOEF7SX06+TixYtr1qw5depUUlKSr69v48aN27Vr5+joqC/5yy+//PHHH6GhodqddHNvP1EU5eWXX37ppZd+/vnn8PDwW7duzZ49e+DAgfn4e4JVuddsryhKVFSUdhmxnFK0aNGGDRtWrFhRP3Hr1q2XLl164403XF1dzZZgVlVFUTZs2HDt2rVGjRrVrFnT7NmzZ8/u2rVL6C5mcHR0lHu4dp2DZvny5XI0UquaNGlSo0YN7eHff/+9adOmw4cP37t3z8fHp379+i+99JKdt2lD/lNhTdWqVefMmZPftUAWnszN9Morr0REROR3LZAX5s2bFxAQYLuMyWTKm8rkme3bt+fUd9Pt27ebNm0qv+zKlSvn7+8v7+hcoUKFM2fOmBX++eefy5UrJ4RwcnIKDAwsXbq0EMLFxWXs2LHp6elaseTkZLnAVatWWb5igwYNhBC7d+9WVbVZs2a2v38//vhjVVXHjRtnI2W2atUqLS1NW77JZIqPj+/Tp4+cpUyZMgEBAU5OTkKIGjVq7N+/X1+ZTp06CSFWrFiRIyvTjNlm0u+H6enpixcvbtSoUUJCguWz+aVnz559+/bN1Zfw8PCQW02/QV1cXD766KPU1FStWLt27RRFuXnzpprVmomPj5fLfPnlly2fnTt3bma7Tc+ePRMTE/WFtbM7jf5ClMjISK1kVFSU5e1pvb29o6Ojs7uC7NCjR4/c3kyGR5s9ABRiBaQptABKTk5u2bLlkSNHmjdvPmvWLNkkeffu3YiIiCVLlrRr1+7o0aOurq5yBc6YMeODDz4oXrx4ZGRkr1693N3dhRD79+9/7733Ro8evX///jVr1jg6OuqX/+677zZp0qRkyZJqJpfYjho16u2339am9+jRo0aNGqNGjdKmPP300/IfVVUjIiKGDRum/tui/PDhw5iYmI8++mjr1q2zZs2KiIiQ05OSkoKDg3/77beQkJCvv/66du3aQoiEhIRFixYNHz68WbNmO3bseP755/X1zJs9RP8qjo6OvXr16t69e2JiYl7WwTY1TzqT+Pn5ffbZZ9r7NZlM06dPnzx5cnx8fGRkpL4y9lzh/cMPPyQmJjZs2HDz5s1Xrlwxu7hcztu8efO33npLNtubTKZbt24tXrx46dKl58+f37Fjh7aHy79Tp061HM5ICKHtM7GxsW+//baPj8+CBQtq1qxZpEiR5OTk2NjY8PDwzp07nz59Wp7xokDLz9OKAuzJbAwudJ7MzUSb/ZPDnjZ748mRNnuTyTRs2DAhRI8ePbQWd619tFOnToqiTJgwQU45e/ask5NTyZIlz549a7acxMTEevXqCSFGjRolC8tb5BYtWlRRlO7du5uV17fZmxFCNG3a1HK6vFerbL83s3PnTiFE6dKltSkDBgwQQnTt2jUjI8Os8LZt24oUKVKtWjWtjV+22f/444/W11H25OBPK3kjDxqDPTw86tWrZzYxLi7OwcGhaNGi2n7Yrl07IcStW7eyXGBQUFCxYsVklxvLPWT+/PlCiH79+uknmkymlJQUefny8OHDten+/v5CiAsXLth+xdatWwtrv0fJM9KxY8fm9s8vtNlnH1fQAgCM5v79+9OnT3dxcZk5c6bW1q61j3766adBQUF3796VU2bNmpWWljZ+/Phq1aqZLcfd3f2HH35wdnaeOXOm/lZHDRs2bN++/bJly1avXq0vn1OXaaqqKoRo1KiRg4PDrVu3UlJSVFW9efNmZGRkiRIlIiMjLQfkCQkJGTx48O+///7tt99mvwJ4bDJdaQ+9vb09PT2TkpLS09MfaTmnT5/et29fcHBw48aN/f39o6Ki5BK0hVu9p5uiKM7OzlFRUeXKlZs3b57WecxqPS3/v379uhBCf2GA9M4777z99tu+vr4F4ecX2EayBwAYzaZNm5KTk4OCgooXL275bM2aNffs2TN58mT5cNu2ba6urq+99ppWQB96AgICgoOD4+LifvvtN/1C5syZU7JkyXfeeefOnTv6GdVH6fWRWWHZuWLt2rUmk6lmzZqy3/OqVasyMjI6derk7e1t9RVlY3BUVJT9FUDOUi1uCnb27NkHDx60aNHCsvO6bXI7vvnmm0KIN9544++//16zZo22cDWTG9xKzs7Or7zyyp07d2JjYzOrp9UuZI0bNxZCDBw48MiRI/rC5cuXnzt37ltvvfVIbwH5gn72AACjOXnypKqqL774YpYlVVW9ePFizZo1tcsfhcUAo1WrVt2yZcuJEyeCgoL0txSYOXNmjx493nvvvWXLlj1ePbWlxcXF/f7779r0hw8fxsbGjhgxQggxcOBAWfLo0aNCiPr161tdghDimWeeURTl0KFDlrEPeePOnTtz586VK99kMl28eHHJkiVlypSZPn16lvPqt1paWtq3337r7+8fFhYmhOjbt+/YsWPnzp0re1gJO25wK3+AMhudafny5aVKlTKb0cPDQzutHTVq1J49e2JjY+vVqxcQENCkSZOwsLCQkJCiRYvatwKQ/0j2AACjiY+PF0LIsW70zCKvqqoPHjxITU21HCVQK6woipubm6qqcXFxWgO5XEi3bt1++OGH5cuXd+nSpUOHDlm21qv/jpdvGctmz549e/Zss4nly5f/7LPP+vbtKx/KnhI+Pj6ZLd/d3d3DwyMhISEhISEfo9iTdl6h6i6HvXLlSv/+/c0KhIeHW71u1Yx+pa1du/b27dsff/yx7HZVvnz5tm3brl279uLFiwEBAfZUqVixYkIIOQqntmeOHDnSsrCvr6+W7H18fPbv379o0aKoqKgDBw5cuHAhKirKycmpZcuWI0aMaNiwYZYvjXxHsgcAGI1sgJdXu+qZJU7ZKVkIIW+rlFnhlJQUIYQ2zIjQRaXIyMhdu3Zp4+TYrpWN4VBq16793HPPySVHR0dfvnx5wIAB06ZN0w/II6uqHzFdT551PHz4UFEUs4HS85jWXUQUjFFxcpt+r/Dz8xs7dqz6710F7t+/HxsbGxkZuXnz5n379tk4KzOzcOFCFxeXpk2bXrx4US7qpZdeWrNmzbx58yZNmmRPleLi4oQQcphXrYZffvml5TmGHAlKm9HZ2fmdd9555513Lly4sH79+tjY2OPHj2/cuHHLli3R0dGyuw4KMpI9AMBo5Egg+v4tkta8mpSUJAONq6urr6+vZUk92aVBjjmoj3GKouRInxwhRNu2bcePHy//j4+PDw0NnTVr1tNPPx0eHq6V8fPzE0KcP3/e6hIURTl//nx6enqlSpVknstfT0Kmt1SiRAn9BRtCiPfee69EiRJz5swZM2aMfuDLzKiqev369S1btphMprp165o9GxUVNW7cOHmOZ3vcTNlR3uz2Uu3bt7enyV8KDAwcOHCg7Aw2Z86cd999t1+/fmfPnn0yt2whwhW0AACjadKkiRDC8t6uUlJSko+PT506dR48eCCECA4OvnbtmtkFspq0tLSdO3cqihIUFKSfruWbbt26dejQYfny5atWrXq82pqNqFOsWLElS5a4uroOGDBg69at2vTg4GAhxMqVKzNbzvfffy+EaNOmDdkrj9nuiNWrVy9VVQ8dOmTPvIqifPPNNyaTKTQ0tG/fvn10atasefv2bTkkpdB17rJcZnp6+i+//CKE+M9//qMtNst6HjhwoEmTJp988olZ9VRV7d+/v5+f37lz5zI7sUTBQbIHABhN9erVGzRocOrUKZlvNDLfzJ07NyEhwdfXV3ZGlyN+vPvuu/Hx8Vr00f75/PPPb9y4ERwcLLtSWGYjRVHkODn9+/e/e/eujVpllqssO6YHBATIscP79ev34MEDOWPLli2rV6/+22+/TZs2zXIhJ0+enDx5sqOj46BBg2zUAbnBspuW3oULF4S1qz708+pnlHeB/eGHHxYsWLBQZ8qUKUKIyMjILM/c5s2bd/PmzXr16lWtWlVfMdszurm5xcTETJ8+XdvlhO60U07RX2iOgolkDwAwoAkTJiiK0rlzZ32ztxBi7dq1w4cPd3Jy0vorN2vWrGPHjgcPHmzcuPGpU6fkREVRkpKShg4dOmbMmKJFi86cOVObbvZCqqrKPjk3b9603VfBxlOWiXDw4MH169f/888/R48eLWd0cnL6/vvv3d3dBw0aNHHiRH2H+507d4aGhiYnJ4eHhwcGBmovJ7toZ76SkMMsN/GxY8cmTJgghOjWrZuwOc6p/Gf79u2XLl1q06aNl5eXWeEWLVoEBgbu3Lnz7NmzmVUgKSlpwoQJgwYNcnZ2tmdAHr1atWrVr18/Li6uQ4cOJ06c0D81bdq0y5cvh4WFlS9f/pGWibyX/13xAADIcU2bNp0xY0ZERERoaGj9+vUDAwPT0tKOHz9+7tw5Jyenb7/9tnbt2lrhb7/99sGDB7/88kvt2rXr168fEBBw//79PXv23Lt3r1y5cj/++GP16tVlSRm29DcJki3u3bp1+/HHH2VPCavp32qstzH+vaOj4+LFi5999tkZM2a89tpr8la4derU2bBhQ4cOHUaMGDF16tSgoCAXF5eTJ0+ePn1aUZS3335bNuvqF96/f//BgwebLXz27NlyOMUnbRyb3Hb8+PGnnnpKe2gymeRFGq+//rpM9trarl27toODg9nZ14kTJxYuXCiEkDeRtbzgOzw8/MMPP5w7d+6UKVPktlu2bNnmzZvls+np6bdv305LS/Pw8Pjmm2/kHZH1GjdurF2Trd/0Pj4+sjfa999/Hxoaun379rp16zZp0qR8+fLyU3PmzJlq1apxq4RCgWQPADCmAQMGNGzYcOzYsVu3bj148KAQwtPTs3v37iNHjtT6H0uenp6bNm1atGjR/PnzDx06JDvo+/v7f/jhhxEREZ6enlpJBwcHf3//ChUq6KcIIVRVnTNnzrlz55KSklxdXS3vBOTn56e1d+rHSSxRooS/v7/VcXWqV68+adKk6dOnT5o0acWKFXJis2bNDh8+PGbMmLVr18pbF7m7u3fs2HHMmDH6cxUhhK+vr7+/v9XsbnlfXmSfv79/YmKifoqbm1uLFi369OnTtGlTbWLZsmXlFd7i3z1B+5ucnHzs2LGaNWu+/PLLZguXZXr37j1v3rzdu3ebTCYvLy95UbX2rJubW5UqVV566aU+ffqYjYEjr/+WzH7JURTFyclJ/h8YGHj06NEvvvjip59+2rlzpzyDLVu2bK9evSZNmmQ5Fj4KIH6ns65atWqDBg3SD0qAAujJ3Ezt2rXz8/ObOnVqflcEuW7+/PmTJk2SnXSfHNHR0cHBwTn73WQymW7fvp2RkVG2bFltouXY9vJhamrq7du3PTw8zMYVyVX6ytjZjq6q6q1bt1RVLV26tDy7eNQXyo7c2Ey5qmfPnm5ubgsWLMjviuSuHBxsNCUl5c6dOy4uLtppZx78wvOEbKZcRZs9AMCA9K2hDg4OlsN4myVp7aGzs3NmFztmsxr6KVYrY/mUjSylKIp8U2bx2nb8opE+V9l/VpZZ7yyzvcXGjFZPTXNw+7q4uJh9ENh5CgWuoAUAGJDZaN82erTnYF6xOnKO2UtkGbvtLPxIZfQVK0QN7YWI3MHs3JesXokhrO0AljPqR62xvUyrlXyMp1C40GYPADC+vGluLAiNmlbr8KhnC3hU2Vyr9s+enRfix5wnAcneupSUlEmTJv3zzz/5XRHYcu7cOQ5GAAAAEsneukaNGl2+fDk6Ojq/KwJbGjVq5Ovrm9+1AAAAKBBI9v9H30NuyZIl+VsZAAAA4JFwBe3/oV9HYcRFPwAAABLJ3hZSYwHH3RMBAAA0JHsrMhtSCgUKsR4AAECPZG+F2Y2XUTCZ3aEjH2sCAABQEJDsraMxuHBhewEAAJDsAQAFEb/FIWfZuA8xYBgkewBAQcRvcQWWjXxckKOzoijsVIVOQd6jCiaSPQAAeARW87FMYERnPB59gtf/z6WPj4pkDwAAsmY7YBX8TE9ALMj0+4/ZvlTwd60ChXvQAgAKnBYtWsh/aLErmA4fPpzfVXg0qqpGRUVduXIlvysC6+Qn/ddff+3Xr19+16VwI9kDAAqQSpUqjRgxQnvInSsKpueff75wbZcOHTr4+fnldy2QhRdeeOG5554zm8hB4JGQ7AEABYi/v//48ePzuxawrjBmLFnnzp07d+7cOb/rgsdR6Ha5/EU/ewAAYJfCmLEKY52Bx0ayBwAAAIyAZA8AAAAYAckeAAAAMAKSPQAAAGAEJHsAAADACEj2AAAAgBGQ7AEAAAAjINkDAAAARkCyBwAAAIyAZA8AAAAYAckeAAAAMAKSPQAAAGAEJHsAAADACEj2AAAAgBGQ7AEAAAAjINkDAAAARkCyBwAAAIyAZA8AAAAYAckeAAAAMAKSPQAAAGAEJHsAAADACEj2AAAAgBGQ7AEAAAAjINkDAAAARkCyBwAAAIyAZA8AAAAYAckeAAAAMAKSPQAAAGAEJHsAAADACEj2AAAAgBGQ7AEAAAAjINkDAAAARkCyBwAAAIyAZA8AAAAYAckeAAAAMAKSPQAAAGAEJHsAAADACEj2AAAAgBGQ7AEAAAAjINkDAAAARkCyBwAAAIyAZA8AAAAYAckeAAAAMAKSPQAAAGAEJHsAAADACEj2AAAAgBGQ7AEAAAAjINkDAAAARkCyBwAAAIyAZA8AAAAYAckeAAAAMAKSPQAAAGAEJHsAAADACEj2AAAAgBGQ7AEAAAAjINkDAAAARkCyBwAAAIyAZA8AAAAYAckeAAAAMAKSPQAAAGAEJHsAAADACEj2AAAAgBGQ7AEAAAAjINkDAAAARkCyBwAAAIyAZA8AAAAYAckeAAAAMAKSPQAAAGAEJHsAAADACEj2AAAAgBGQ7AEAAAAjINkDAAAARkCyBwAAAIyAZA8AAAAYAckeAAAAMAKSPQAAAGAEJHsAAADACEj2AAAAgBGQ7AEAAAAjINkDAAAARkCyBwAAAIyAZA8AAAAYAckeAAAAMAKSPQAAAGAEJHsAAADACEj2AAAAgBGQ7AEAAAAjINkDAAAARkCyBwAAAIyAZA8AAAAYAckeAAAAMAKSPQAAAGAEJHsAAADACEj2AAAAgBGQ7AEAAAAjINkDAAAARkCyBwAAAIyAZA8AAAAYAckeAAAAMAKSPQAAAGAEJHsAAADACEj2AAAAgBGQ7AEAAAAjINkDAAAARkCyBwAAAIyAZA8AAAAYAckeAAAAMAKSPQAAAGAEJHsAAADACEj2AAAAgBGQ7AEAAAAjINkDhYCqqvldBQAAUNCR7IFCQFGU/K4C8pR2LsemBwDYr0h+VwDAo1FVdcOGDY0aNVJVldhnbCtXrkxOTtYessUBALaR7IFCplixYlevXn3nnXfyuyLIdQkJCbVq1dIeylhPvgcAZEah/y4AFDTEdwDAYyDZAwAAAEbAFbQAUCBo7SyqqtLmAgB4DLTZAwAAAEZAmz0AAABgBCR7AAAAwAhI9gAAAIARkOwBAAAAIyDZAwAAAEZAsgcAAACMgGQPAAAAGAHJHgAAADACkj0AAABgBCR7AAAAwAhI9gAAAIARkOwBAAAAIyDZAwAAAEZAsgcAAACMgGQPAAAAGAHJHgAAADACkj0AAABgBCR7AAAAwAhI9gAAAIARkOwBAAAAIyDZAwAAAEZAsgcAAACMgGQPAAAAGAHJHgAAADACkj0AAKIwgBEAAAHKSURBVABgBCR7AAAAwAhI9gAAAIARkOwBAAAAIyDZAwAAAEZAsgcAAACMgGQPAAAAGAHJHgAAADACkj0AAABgBCR7AAAAwAhI9gAAAIARkOwBAAAAIyDZAwAAAEZAsgcAAACMgGQPAAAAGAHJHgAAADACkj0AAABgBCR7AAAAwAhI9gAAAIARkOwBAAAAIyDZAwAAAEZAsgcAAACMgGQPAAAAGAHJHgAAADACkj0AAABgBCR7AAAAwAhI9gAAAIARkOwBAAAAIyDZAwAAAEZAsgcAAACMgGQPAAAAGAHJHgAAADACkj0AAABgBCR7AAAAwAhI9gAAAIARkOwBAAAAIyDZAwAAAEZAsgcAAACMgGQPAAAAGAHJHgAAADACkj0AAABgBCR7AAAAwAhI9gAAAIARkOwBAAAAIyDZAwAAAEZAsgcAAACMgGQPAAAAGAHJHgAAADACkj0AAABgBCR7AAAAwAhI9gAAAIARkOwBAAAAIyDZAwAAAEZAsgcAAACMgGQPAAAAGAHJHgAAADACkj0AAABgBCR7AAAAwAhI9gAAAIARkOwBAAAAIyDZAwAAAEZAsgcAAACMgGQPAAAAGAHJHgAAADCC/wfQFhBhQNeegQAAAABJRU5ErkJggg==;" vertex="1" parent="1">
          <mxGeometry x="90" y="20" width="1295.79" height="728" as="geometry" />
        </mxCell>
      </root>
    </mxGraphModel>
  </diagram>
</mxfile>
